{"accessors":[{"bufferView":0,"byteOffset":0,"componentType":5126,"count":4,"max":[1.0,1.0090000000000001,0.0],"min":[0.0,0.0,0.0],"type":"VEC3"},{"bufferView":0,"byteOffset":48,"componentType":5126,"count":5,"max":[0.0,2.0,0.0],"min":[0.0,0.0,-1.0],"type":"VEC3"},{"bufferView":0,"byteOffset":108,"componentType":5126,"count":4,"max":[1.0,2.0,0.0],"min":[0.0,1.0090000000000001,-0.9910000000000001],"type":"VEC3"},{"bufferView":0,"byteOffset":156,"componentType":5126,"count":4,"max":[1.0,0.0,0.0],"min":[0.0,0.0,-1.0],"type":"VEC3"},{"bufferView":0,"byteOffset":204,"componentType":5126,"count":4,"max":[1.0,1.0090000000000001,0.0],"min":[1.0,0.0,-1.0],"type":"VEC3"},{"bufferView":0,"byteOffset":252,"componentType":5126,"count":4,"max":[0.008999999999999887,2.0,-0.9910000000000001],"min":[0.0,2.0,-1.0],"type":"VEC3"},{"bufferView":0,"byteOffset":300,"componentType":5126,"count":5,"max":[1.0,2.0,-1.0],"min":[0.0,0.0,-1.0],"type":"VEC3"},{"bufferView":0,"byteOffset":360,"componentType":5126,"count":4,"max":[1.0,2.0,0.0],"min":[0.008999999999999887,1.0090000000000001,-1.0],"type":"VEC3"},{"bufferView":1,"byteOffset":0,"componentType":5126,"count":4,"type":"VEC3"},{"bufferView":1,"byteOffset":48,"componentType":5126,"count":5,"type":"VEC3"},{"bufferView":1,"byteOffset":108,"componentType":5126,"count":4,"type":"VEC3"},{"bufferView":1,"byteOffset":156,"componentType":5126,"count":4,"type":"VEC3"},{"bufferView":1,"byteOffset":204,"componentType":5126,"count":4,"type":"VEC3"},{"bufferView":1,"byteOffset":252,"componentType":5126,"count":4,"type":"VEC3"},{"bufferView":1,"byteOffset":300,"componentType":5126,"count":5,"type":"VEC3"},{"bufferView":1,"byteOffset":360,"componentType":5126,"count":4,"type":"VEC3"},{"bufferView":2,"byteOffset":0,"componentType":5123,"count":6,"type":"SCALAR"},{"bufferView":2,"byteOffset":12,"componentType":5123,"count":9,"type":"SCALAR"},{"bufferView":2,"byteOffset":32,"componentType":5123,"count":6,"type":"SCALAR"},{"bufferView":2,"byteOffset":44,"componentType":5123,"count":6,"type":"SCALAR"},{"bufferView":2,"byteOffset":56,"componentType":5123,"count":6,"type":"SCALAR"},{"bufferView":2,"byteOffset":68,"componentType":5123,"count":6,"type":"SCALAR"},{"bufferView":2,"byteOffset":80,"componentType":5123,"count":9,"type":"SCALAR"},{"bufferView":2,"byteOffset":100,"componentType":5123,"count":6,"type":"SCALAR"}],"asset":{"generator":"Open CASCADE Technology 7.8 [dev.opencascade.org]","version":"2.0"},"bufferViews":[{"buffer":0,"byteLength":408,"byteOffset":0,"byteStride":12,"target":34962},{"buffer":0,"byteLength":408,"byteOffset":408,"byteStride":12,"target":34962},{"buffer":0,"byteLength":112,"byteOffset":816,"target":34963}],"buffers":[{"byteLength":928,"uri":"Corner_Grade-Body.bin"}],"materials":[{"name":"mat_0","pbrMetallicRoughness":{"baseColorFactor":[0.16826939582824707,0.19120168685913086,0.2158605307340622,1.0]},"doubleSided":true}],"meshes":[{"name":"Body","primitives":[{"attributes":{"NORMAL":8,"POSITION":0},"indices":16,"material":0,"mode":4},{"attributes":{"NORMAL":9,"POSITION":1},"indices":17,"material":0,"mode":4},{"attributes":{"NORMAL":10,"POSITION":2},"indices":18,"material":0,"mode":4},{"attributes":{"NORMAL":11,"POSITION":3},"indices":19,"material":0,"mode":4},{"attributes":{"NORMAL":12,"POSITION":4},"indices":20,"material":0,"mode":4},{"attributes":{"NORMAL":13,"POSITION":5},"indices":21,"material":0,"mode":4},{"attributes":{"NORMAL":14,"POSITION":6},"indices":22,"material":0,"mode":4},{"attributes":{"NORMAL":15,"POSITION":7},"indices":23,"material":0,"mode":4}]}],"nodes":[{"mesh":0,"name":"Body"}],"scene":0,"scenes":[{"nodes":[0]}]}