# Created by FreeCAD <https://www.freecad.org>
v 0.000000 0.000000 0.000000
v 1000.000000 1000.000000 0.000000
v 1000.000000 0.000000 0.000000
v 0.000000 1000.000000 0.000000
v 1000.000000 0.000000 1000.000000
v 1000.000000 1000.000000 2000.000000
v 0.000000 1000.000000 2000.000000
v 0.000000 0.000000 2000.000000
vn 0.000000 0.000000 -1.000000
vn 0.000000 0.000000 -1.000000
vn 1.000000 0.000000 0.000000
vn 1.000000 0.000000 0.000000
vn 0.000000 -0.707107 0.707107
vn 0.707107 -0.000000 0.707107
vn -0.000000 -1.000000 0.000000
vn 0.000000 -1.000000 0.000000
vn 0.000000 1.000000 0.000000
vn 0.000000 1.000000 0.000000
vn -1.000000 0.000000 0.000000
vn -1.000000 0.000000 0.000000
f 1//1 2//1 3//1
f 4//2 2//2 1//2
f 5//3 3//3 2//3
f 6//4 5//4 2//4
f 5//5 6//5 7//5
f 8//6 5//6 7//6
f 5//7 8//7 1//7
f 3//8 5//8 1//8
f 6//9 2//9 4//9
f 6//10 4//10 7//10
f 4//11 8//11 7//11
f 1//12 8//12 4//12
