{"accessors":[{"bufferView":0,"byteOffset":0,"componentType":5126,"count":4,"max":[1.0,0.0,0.0],"min":[0.0,0.0,-1.0],"type":"VEC3"},{"bufferView":0,"byteOffset":48,"componentType":5126,"count":4,"max":[1.0,2.0,0.0],"min":[1.0,0.0,-1.0],"type":"VEC3"},{"bufferView":0,"byteOffset":96,"componentType":5126,"count":3,"max":[1.0,2.0,-1.1102230245810404e-16],"min":[0.0,1.0,-1.0000000000000004],"type":"VEC3"},{"bufferView":0,"byteOffset":132,"componentType":5126,"count":3,"max":[1.0,2.0,-1.1102230245810404e-16],"min":[0.0,1.0,-1.0000000000000004],"type":"VEC3"},{"bufferView":0,"byteOffset":168,"componentType":5126,"count":4,"max":[1.0,2.0,0.0],"min":[0.0,0.0,-4.440892098500626e-16],"type":"VEC3"},{"bufferView":0,"byteOffset":216,"componentType":5126,"count":4,"max":[1.0,2.0,-1.0],"min":[0.0,0.0,-1.0000000000000004],"type":"VEC3"},{"bufferView":0,"byteOffset":264,"componentType":5126,"count":4,"max":[0.0,2.0,0.0],"min":[0.0,0.0,-1.0000000000000004],"type":"VEC3"},{"bufferView":1,"byteOffset":0,"componentType":5126,"count":4,"type":"VEC3"},{"bufferView":1,"byteOffset":48,"componentType":5126,"count":4,"type":"VEC3"},{"bufferView":1,"byteOffset":96,"componentType":5126,"count":3,"type":"VEC3"},{"bufferView":1,"byteOffset":132,"componentType":5126,"count":3,"type":"VEC3"},{"bufferView":1,"byteOffset":168,"componentType":5126,"count":4,"type":"VEC3"},{"bufferView":1,"byteOffset":216,"componentType":5126,"count":4,"type":"VEC3"},{"bufferView":1,"byteOffset":264,"componentType":5126,"count":4,"type":"VEC3"},{"bufferView":2,"byteOffset":0,"componentType":5123,"count":6,"type":"SCALAR"},{"bufferView":2,"byteOffset":12,"componentType":5123,"count":6,"type":"SCALAR"},{"bufferView":2,"byteOffset":24,"componentType":5123,"count":3,"type":"SCALAR"},{"bufferView":2,"byteOffset":32,"componentType":5123,"count":3,"type":"SCALAR"},{"bufferView":2,"byteOffset":40,"componentType":5123,"count":6,"type":"SCALAR"},{"bufferView":2,"byteOffset":52,"componentType":5123,"count":6,"type":"SCALAR"},{"bufferView":2,"byteOffset":64,"componentType":5123,"count":6,"type":"SCALAR"}],"asset":{"generator":"Open CASCADE Technology 7.8 [dev.opencascade.org]","version":"2.0"},"bufferViews":[{"buffer":0,"byteLength":312,"byteOffset":0,"byteStride":12,"target":34962},{"buffer":0,"byteLength":312,"byteOffset":312,"byteStride":12,"target":34962},{"buffer":0,"byteLength":76,"byteOffset":624,"target":34963}],"buffers":[{"byteLength":700,"uri":"Inside_Corner_Grade-Body.bin"}],"materials":[{"name":"mat_0","pbrMetallicRoughness":{"baseColorFactor":[0.16826939582824707,0.19120168685913086,0.2158605307340622,1.0]},"doubleSided":true}],"meshes":[{"name":"Body","primitives":[{"attributes":{"NORMAL":7,"POSITION":0},"indices":14,"material":0,"mode":4},{"attributes":{"NORMAL":8,"POSITION":1},"indices":15,"material":0,"mode":4},{"attributes":{"NORMAL":9,"POSITION":2},"indices":16,"material":0,"mode":4},{"attributes":{"NORMAL":10,"POSITION":3},"indices":17,"material":0,"mode":4},{"attributes":{"NORMAL":11,"POSITION":4},"indices":18,"material":0,"mode":4},{"attributes":{"NORMAL":12,"POSITION":5},"indices":19,"material":0,"mode":4},{"attributes":{"NORMAL":13,"POSITION":6},"indices":20,"material":0,"mode":4}]}],"nodes":[{"mesh":0,"name":"Body"}],"scene":0,"scenes":[{"nodes":[0]}]}