{"accessors":[{"bufferView":0,"byteOffset":0,"componentType":5126,"count":5,"max":[1.0,2.0,0.0],"min":[0.0,0.0,0.0],"type":"VEC3"},{"bufferView":0,"byteOffset":60,"componentType":5126,"count":4,"max":[1.0,1.01,0.0],"min":[1.0,0.0,-1.0],"type":"VEC3"},{"bufferView":0,"byteOffset":108,"componentType":5126,"count":4,"max":[1.0,2.0,0.0],"min":[0.01,1.01,-1.0],"type":"VEC3"},{"bufferView":0,"byteOffset":156,"componentType":5126,"count":4,"max":[1.0,0.0,0.0],"min":[0.0,0.0,-1.0],"type":"VEC3"},{"bufferView":0,"byteOffset":204,"componentType":5126,"count":4,"max":[0.01,2.0,0.0],"min":[0.0,2.0,-1.0],"type":"VEC3"},{"bufferView":0,"byteOffset":252,"componentType":5126,"count":4,"max":[0.0,2.0,0.0],"min":[0.0,0.0,-1.0],"type":"VEC3"},{"bufferView":0,"byteOffset":300,"componentType":5126,"count":5,"max":[1.0,2.0,-1.0],"min":[0.0,0.0,-1.0],"type":"VEC3"},{"bufferView":1,"byteOffset":0,"componentType":5126,"count":5,"type":"VEC3"},{"bufferView":1,"byteOffset":60,"componentType":5126,"count":4,"type":"VEC3"},{"bufferView":1,"byteOffset":108,"componentType":5126,"count":4,"type":"VEC3"},{"bufferView":1,"byteOffset":156,"componentType":5126,"count":4,"type":"VEC3"},{"bufferView":1,"byteOffset":204,"componentType":5126,"count":4,"type":"VEC3"},{"bufferView":1,"byteOffset":252,"componentType":5126,"count":4,"type":"VEC3"},{"bufferView":1,"byteOffset":300,"componentType":5126,"count":5,"type":"VEC3"},{"bufferView":2,"byteOffset":0,"componentType":5123,"count":9,"type":"SCALAR"},{"bufferView":2,"byteOffset":20,"componentType":5123,"count":6,"type":"SCALAR"},{"bufferView":2,"byteOffset":32,"componentType":5123,"count":6,"type":"SCALAR"},{"bufferView":2,"byteOffset":44,"componentType":5123,"count":6,"type":"SCALAR"},{"bufferView":2,"byteOffset":56,"componentType":5123,"count":6,"type":"SCALAR"},{"bufferView":2,"byteOffset":68,"componentType":5123,"count":6,"type":"SCALAR"},{"bufferView":2,"byteOffset":80,"componentType":5123,"count":9,"type":"SCALAR"}],"asset":{"generator":"Open CASCADE Technology 7.8 [dev.opencascade.org]","version":"2.0"},"bufferViews":[{"buffer":0,"byteLength":360,"byteOffset":0,"byteStride":12,"target":34962},{"buffer":0,"byteLength":360,"byteOffset":360,"byteStride":12,"target":34962},{"buffer":0,"byteLength":100,"byteOffset":720,"target":34963}],"buffers":[{"byteLength":820,"uri":"Up_Grade-Body.bin"}],"materials":[{"name":"mat_0","pbrMetallicRoughness":{"baseColorFactor":[0.16826939582824707,0.19120168685913086,0.2158605307340622,1.0]},"doubleSided":true}],"meshes":[{"name":"Body","primitives":[{"attributes":{"NORMAL":7,"POSITION":0},"indices":14,"material":0,"mode":4},{"attributes":{"NORMAL":8,"POSITION":1},"indices":15,"material":0,"mode":4},{"attributes":{"NORMAL":9,"POSITION":2},"indices":16,"material":0,"mode":4},{"attributes":{"NORMAL":10,"POSITION":3},"indices":17,"material":0,"mode":4},{"attributes":{"NORMAL":11,"POSITION":4},"indices":18,"material":0,"mode":4},{"attributes":{"NORMAL":12,"POSITION":5},"indices":19,"material":0,"mode":4},{"attributes":{"NORMAL":13,"POSITION":6},"indices":20,"material":0,"mode":4}]}],"nodes":[{"mesh":0,"name":"Body"}],"scene":0,"scenes":[{"nodes":[0]}]}